<?xml version="1.0" ?><!DOCTYPE svg  PUBLIC '-//W3C//DTD SVG 1.1//EN'  'http://www.w3.org/Graphics/SVG/1.1/DTD/svg11.dtd'><svg enable-background="new 0 0 30 30" height="30px" id="Layer_1" version="1.1" viewBox="0 0 30 30" width="30px" xml:space="preserve" xmlns="http://www.w3.org/2000/svg" xmlns:xlink="http://www.w3.org/1999/xlink"><g><path d="M7.567,13.083L3.274,5.647C6.023,2.206,10.254,0.001,15,0.001c5.492,0,10.293,2.951,12.906,7.354H15.668   C15.447,7.335,15.225,7.325,15,7.325C11.43,7.325,8.421,9.775,7.567,13.083z M20.371,9.522h8.598C29.635,11.22,30,13.067,30,15.001   c0,8.227-6.623,14.906-14.829,14.998l6.134-10.625c0.865-1.242,1.371-2.75,1.371-4.373C22.676,12.856,21.793,10.916,20.371,9.522z    M9.551,15.001c0-3.005,2.445-5.449,5.449-5.449c3.006,0,5.449,2.444,5.449,5.449c0,3.004-2.443,5.449-5.449,5.449   C11.996,20.45,9.551,18.005,9.551,15.001z M17.057,22.396l-4.295,7.439C5.539,28.753,0,22.524,0,15.001   c0-2.673,0.7-5.182,1.926-7.354l6.123,10.606c1.227,2.611,3.881,4.424,6.951,4.424C15.713,22.677,16.402,22.579,17.057,22.396z" fill="#2b2b2b"/></g></svg>